<?xml version="1.0" standalone="no"?>
<!DOCTYPE svg PUBLIC "-//W3C//DTD SVG 20010904//EN"
 "http://www.w3.org/TR/2001/REC-SVG-20010904/DTD/svg10.dtd">
<svg version="1.0" xmlns="http://www.w3.org/2000/svg"
 width="1024.000000pt" height="1024.000000pt" viewBox="0 0 1024.000000 1024.000000"
 preserveAspectRatio="xMidYMid meet">
<metadata>
Created by potrace 1.14, written by Peter Selinger 2001-2017
</metadata>
<g transform="translate(0.000000,1024.000000) scale(0.100000,-0.100000)"
fill="#000000" stroke="none">
<path d="M3039 10043 c-1 -109 -3 -243 -5 -298 -2 -55 -3 -115 -4 -132 l0 -33
-580 0 -579 0 -3 113 c-3 129 16 114 -150 116 l-98 1 0 80 0 80 -360 0 -360 0
0 -80 0 -80 -150 0 -150 0 0 -195 0 -195 150 0 150 0 0 -105 0 -105 53 -1 c28
0 187 -2 352 -4 165 -2 303 -4 308 -4 4 -1 7 -750 7 -1666 l0 -1665 -135 0
-135 0 0 -395 0 -395 -389 0 -388 0 3 228 c2 125 3 251 4 280 l0 52 145 0 145
0 0 116 0 115 -107 -1 c-60 -1 -125 -1 -145 -1 l-38 1 0 280 0 280 -167 2
-168 3 -3 502 -2 502 -33 3 c-17 2 -71 2 -120 0 l-87 -3 0 -3720 0 -3719 448
2 447 3 3 82 3 83 104 0 105 0 0 -85 0 -85 3110 0 3110 0 0 175 0 175 110 0
110 0 0 -175 0 -176 148 3 147 3 3 158 3 157 125 0 126 0 -4 -148 c-2 -81 -3
-153 0 -160 3 -9 157 -12 673 -12 l669 0 0 80 0 80 240 0 240 0 0 -80 0 -80
160 0 160 0 0 4010 0 4010 -185 0 -185 0 0 -1467 c0 -806 -2 -1468 -4 -1470
-6 -6 -494 -8 -500 -2 -3 3 -6 67 -7 142 l0 137 -165 0 -164 0 -2 373 -3 372
-398 3 -398 2 2 93 c0 50 1 176 0 280 l-1 187 -197 -2 -198 -3 -3 -117 -3
-118 -139 0 -140 0 0 120 0 120 -240 0 -240 0 0 -655 0 -655 -477 2 -478 3 -3
988 -2 987 -120 0 -120 0 0 130 0 129 -107 3 -108 3 -3 213 -2 212 -110 0
-110 0 0 -210 0 -210 -180 0 -180 0 0 -290 c0 -249 2 -291 15 -296 41 -16 -11
-24 -156 -24 l-159 0 -1 -202 c0 -112 -1 -482 -2 -822 l-2 -619 -100 -1 -100
-1 -7 -115 c-5 -63 -11 -377 -14 -698 l-6 -582 -97 0 -98 0 -7 1218 c-3 669
-7 1226 -9 1237 -2 19 3 20 118 18 l120 -3 -3 233 c-2 127 -4 233 -6 234 -4 4
-803 17 -860 14 -17 -1 -18 -9 -15 -118 l4 -118 -212 -3 -213 -2 -2 -398 -3
-397 -87 -3 -88 -3 -1 903 c0 497 -2 1182 -4 1523 -2 341 -1 686 2 768 l5 147
74 0 74 0 0 515 0 515 -95 0 -95 0 -1 -197z m-759 -1413 l0 -120 -110 0 -110
0 0 120 0 120 110 0 110 0 0 -120z m500 0 l0 -120 -110 0 -110 0 0 120 0 120
110 0 110 0 0 -120z m-500 -1170 l0 -120 -110 0 -110 0 0 120 0 120 110 0 110
0 0 -120z m500 0 l0 -120 -109 0 c-128 0 -121 -9 -121 143 l0 97 115 0 115 0
0 -120z m1760 -966 c0 -2 -7 -4 -15 -4 -8 0 -15 4 -15 10 0 5 7 7 15 4 8 -4
15 -8 15 -10z m1240 -799 l0 -136 -92 3 -93 3 -3 133 -3 132 96 0 95 0 0 -135z
m0 -965 l0 -140 -90 0 -90 0 0 140 0 140 90 0 90 0 0 -140z m2310 -320 l0
-140 -115 0 -115 0 0 140 0 140 115 0 115 0 0 -140z m-1022 -572 l-3 -153
-102 -3 -103 -3 0 156 0 155 105 0 106 0 -3 -152z m-6768 -438 l0 -140 -120 0
-120 0 0 140 0 140 120 0 120 0 0 -140z m6108 -1287 l-3 -698 -137 -2 c-76 -1
-139 1 -142 5 -2 4 -7 319 -11 700 l-7 692 151 0 151 0 -2 -697z m672 362 l0
-105 -100 0 -100 0 0 105 0 105 100 0 100 0 0 -105z m1330 -500 l0 -116 -102
3 -103 3 -3 113 -3 112 106 0 105 0 0 -115z m-4310 -440 l0 -115 -85 0 -85 0
0 115 0 115 85 0 85 0 0 -115z m440 0 l0 -115 -105 0 -105 0 0 115 0 115 105
0 105 0 0 -115z m-430 -585 l0 -120 -90 0 -90 0 0 120 0 120 90 0 90 0 0 -120z
m4870 0 l0 -120 -110 0 -110 0 0 120 0 120 110 0 110 0 0 -120z m-6690 -230
l0 -110 -97 0 c-54 0 -105 4 -113 10 -10 6 -15 35 -18 109 l-4 101 116 0 116
0 0 -110z m2008 -272 l-3 -113 -92 -3 -93 -3 0 116 0 115 95 0 96 0 -3 -112z"/>
<path d="M6519 10233 c0 -5 0 -56 1 -115 l1 -108 -300 0 -301 0 0 -100 0 -100
-275 0 -275 0 0 -195 0 -195 110 0 110 0 0 -105 0 -105 270 0 270 0 0 -132 0
-133 1313 0 1312 0 3 128 3 127 57 1 c31 1 92 1 135 2 l77 0 0 108 0 109 178
2 177 3 0 190 0 190 -177 3 -178 2 0 100 0 99 -137 3 -138 3 -3 113 -3 112
-1114 0 c-613 0 -1115 -3 -1116 -7z"/>
</g>
</svg>
